<svg width="28" height="28" viewBox="0 0 28 28" fill="none" xmlns="http://www.w3.org/2000/svg">
<g clip-path="url(#clip0_37_2446)">
<path d="M25.6667 0.875H2.33333C1.94656 0.875 1.57563 1.02865 1.30214 1.30214C1.02865 1.57563 0.875 1.94656 0.875 2.33333V25.6667C0.875 26.0534 1.02865 26.4244 1.30214 26.6979C1.57563 26.9714 1.94656 27.125 2.33333 27.125H14.8969V16.975H11.4873V13.001H14.8969V10.0844C14.8969 6.69375 16.9677 4.84604 20.001 4.84604C21.0204 4.84313 22.0412 4.89563 23.0562 5.00208V8.53125H20.9635C19.3185 8.53125 18.9977 9.31583 18.9977 10.4635V12.9938H22.9308L22.4204 16.9677H18.9963V27.125H25.6667C26.0534 27.125 26.4244 26.9714 26.6979 26.6979C26.9714 26.4244 27.125 26.0534 27.125 25.6667V2.33333C27.125 1.94656 26.9714 1.57563 26.6979 1.30214C26.4244 1.02865 26.0534 0.875 25.6667 0.875Z" fill="white"/>
</g>
<defs>
<clipPath id="clip0_37_2446">
<rect width="28" height="28" fill="white"/>
</clipPath>
</defs>
</svg>
