<svg width="712" height="603" viewBox="0 0 712 603" fill="none" xmlns="http://www.w3.org/2000/svg">
<path opacity="0.04" d="M272.984 10.7748H439.408C584.292 10.7748 701.743 128.226 701.743 273.11V541.726C701.743 569.833 678.958 592.619 650.85 592.619H84.6276C43.7703 592.619 10.6489 559.497 10.6489 518.64V273.11C10.6489 128.226 128.1 10.7748 272.984 10.7748Z" fill="white" stroke="white" stroke-width="19.9375"/>
<mask id="path-2-inside-1_21_1018" fill="white">
<path d="M0.680176 273.11C0.680176 122.721 122.595 0.806061 272.984 0.806061H439.408C589.797 0.806061 711.712 122.721 711.712 273.11V541.726C711.712 575.339 684.463 602.587 650.85 602.587H84.6276C38.2647 602.587 0.680176 565.003 0.680176 518.64V273.11Z"/>
</mask>
<path d="M0.680176 273.11C0.680176 119.823 124.944 -4.44065 278.231 -4.44065H434.161C587.448 -4.44065 711.712 119.823 711.712 273.11C711.712 125.618 589.797 6.05277 439.408 6.05277H272.984C122.595 6.05277 0.680176 125.618 0.680176 273.11ZM711.712 602.587H0.680176H711.712ZM0.680176 602.587V0.806061V602.587ZM711.712 0.806061V602.587V0.806061Z" fill="white" mask="url(#path-2-inside-1_21_1018)"/>
</svg>
