<svg width="30" height="30" viewBox="0 0 30 30" fill="none" xmlns="http://www.w3.org/2000/svg">
<g clip-path="url(#clip0_37_2425)">
<path d="M28.9795 9.22647C28.9637 8.04306 28.7422 6.87143 28.3248 5.76397C27.9629 4.82983 27.41 3.98146 26.7016 3.27308C25.9932 2.56469 25.1449 2.01186 24.2107 1.6499C23.1175 1.23952 21.9626 1.01762 20.7951 0.993652C19.292 0.926465 18.8154 0.907715 14.9998 0.907715C11.1842 0.907715 10.6951 0.907715 9.20293 0.993652C8.03599 1.0178 6.8816 1.2397 5.78887 1.6499C4.85458 2.0116 4.00609 2.56435 3.29767 3.27277C2.58925 3.98119 2.03651 4.82968 1.6748 5.76397C1.2636 6.85636 1.04218 8.01101 1.02012 9.17803C0.95293 10.6827 0.932617 11.1593 0.932617 14.9749C0.932617 18.7905 0.932617 19.278 1.02012 20.7718C1.04355 21.9405 1.26387 23.0937 1.6748 24.189C2.03711 25.123 2.59027 25.9711 3.29892 26.6792C4.00758 27.3874 4.85615 27.9399 5.79043 28.3015C6.88017 28.7283 8.03476 28.9661 9.20449 29.0046C10.7092 29.0718 11.1857 29.0921 15.0014 29.0921C18.817 29.0921 19.3061 29.0921 20.7982 29.0046C21.9657 28.9816 23.1207 28.7602 24.2139 28.3499C25.1478 27.9875 25.9959 27.4346 26.7042 26.7262C27.4126 26.0179 27.9656 25.1697 28.3279 24.2358C28.7389 23.1421 28.9592 21.989 28.9826 20.8187C29.0498 19.3155 29.0701 18.839 29.0701 15.0218C29.067 11.2062 29.067 10.7218 28.9795 9.22647ZM14.9904 22.1905C10.9998 22.1905 7.76699 18.9577 7.76699 14.9671C7.76699 10.9765 10.9998 7.74365 14.9904 7.74365C16.9062 7.74365 18.7435 8.50469 20.0982 9.85935C21.4528 11.214 22.2139 13.0513 22.2139 14.9671C22.2139 16.8829 21.4528 18.7202 20.0982 20.0748C18.7435 21.4295 16.9062 22.1905 14.9904 22.1905ZM22.5014 9.16084C22.2801 9.16105 22.061 9.11762 21.8565 9.03304C21.6521 8.94847 21.4663 8.82441 21.3099 8.66796C21.1534 8.51151 21.0294 8.32574 20.9448 8.12129C20.8602 7.91684 20.8168 7.69772 20.817 7.47646C20.817 7.25537 20.8605 7.03644 20.9451 6.83218C21.0298 6.62792 21.1538 6.44232 21.3101 6.28598C21.4664 6.12965 21.652 6.00564 21.8563 5.92103C22.0606 5.83642 22.2795 5.79287 22.5006 5.79287C22.7217 5.79287 22.9406 5.83642 23.1449 5.92103C23.3491 6.00564 23.5347 6.12965 23.6911 6.28598C23.8474 6.44232 23.9714 6.62792 24.056 6.83218C24.1406 7.03644 24.1842 7.25537 24.1842 7.47646C24.1842 8.40771 23.4311 9.16084 22.5014 9.16084Z" fill="white"/>
<path d="M14.9905 19.6593C17.582 19.6593 19.6827 17.5585 19.6827 14.9671C19.6827 12.3757 17.582 10.2749 14.9905 10.2749C12.3991 10.2749 10.2983 12.3757 10.2983 14.9671C10.2983 17.5585 12.3991 19.6593 14.9905 19.6593Z" fill="white"/>
</g>
<defs>
<clipPath id="clip0_37_2425">
<rect width="30" height="30" fill="white"/>
</clipPath>
</defs>
</svg>
